<svg id="svg" version="1.1" width="400" height="401.77777777777777" xmlns="http://www.w3.org/2000/svg" xmlns:xlink="http://www.w3.org/1999/xlink" style="display: block;"><g id="svgg"><path id="path0" d="" stroke="none" fill="#000000" fill-rule="evenodd"></path><path id="path1" d="M179.318 0.298 C 181.033 0.373,183.733 0.372,185.318 0.297 C 186.903 0.221,185.500 0.159,182.200 0.160 C 178.900 0.161,177.603 0.222,179.318 0.298 M215.282 0.296 C 216.758 0.373,219.278 0.373,220.882 0.297 C 222.487 0.221,221.280 0.158,218.200 0.158 C 215.120 0.157,213.807 0.219,215.282 0.296 M156.700 3.882 C 157.195 3.978,158.005 3.978,158.500 3.882 C 158.995 3.787,158.590 3.709,157.600 3.709 C 156.610 3.709,156.205 3.787,156.700 3.882 M241.900 3.882 C 242.395 3.978,243.205 3.978,243.700 3.882 C 244.195 3.787,243.790 3.709,242.800 3.709 C 241.810 3.709,241.405 3.787,241.900 3.882 M255.552 7.312 C 255.745 7.505,256.419 7.598,257.051 7.519 C 258.109 7.387,258.081 7.359,256.700 7.168 C 255.840 7.049,255.350 7.110,255.552 7.312 M95.544 27.987 C 95.025 28.419,94.743 28.779,94.917 28.787 C 95.091 28.794,95.620 28.440,96.092 28.000 C 97.199 26.969,96.779 26.958,95.544 27.987 M312.800 33.167 C 312.800 33.572,314.356 34.582,314.595 34.332 C 314.665 34.260,314.289 33.877,313.761 33.481 C 313.232 33.086,312.800 32.945,312.800 33.167 M189.200 47.201 C 187.990 47.385,184.672 47.732,181.826 47.972 C 178.981 48.212,175.933 48.603,175.053 48.840 C 174.173 49.077,172.001 49.500,170.227 49.780 C 166.887 50.307,162.723 51.287,159.600 52.279 C 158.610 52.594,156.810 53.099,155.600 53.401 C 154.390 53.703,151.870 54.510,150.000 55.194 C 148.130 55.878,146.060 56.605,145.400 56.810 C 144.740 57.016,143.487 57.547,142.615 57.992 C 141.744 58.436,140.790 58.800,140.495 58.800 C 140.200 58.800,139.293 59.155,138.479 59.590 C 137.666 60.024,135.020 61.316,132.600 62.462 C 130.180 63.607,127.057 65.232,125.659 66.072 C 124.262 66.912,123.020 67.600,122.901 67.600 C 122.667 67.600,120.925 68.720,114.600 72.937 C 108.766 76.826,109.025 76.637,103.600 80.985 C 92.299 90.044,79.012 104.583,71.876 115.700 C 71.064 116.965,69.791 118.945,69.047 120.100 C 65.220 126.039,56.800 143.019,56.800 144.797 C 56.800 145.061,56.534 145.754,56.209 146.338 C 55.539 147.541,54.220 151.226,53.395 154.200 C 53.089 155.300,52.581 157.010,52.265 158.000 C 50.884 162.327,49.194 169.727,48.383 175.000 C 48.180 176.320,47.696 179.470,47.307 182.000 C 46.280 188.682,46.280 212.918,47.307 219.600 C 47.696 222.130,48.180 225.280,48.383 226.600 C 49.194 231.873,50.884 239.273,52.265 243.600 C 52.581 244.590,53.089 246.300,53.395 247.400 C 54.220 250.374,55.539 254.059,56.209 255.262 C 56.534 255.846,56.800 256.535,56.800 256.795 C 56.800 257.676,60.448 265.797,63.809 272.400 C 71.713 287.928,87.984 308.187,100.752 318.400 C 101.715 319.170,102.795 320.070,103.153 320.400 C 105.316 322.395,115.804 329.777,120.603 332.683 C 126.697 336.372,140.305 343.200,141.565 343.200 C 141.846 343.200,142.554 343.463,143.138 343.784 C 145.111 344.870,151.989 347.303,155.773 348.253 C 157.077 348.581,158.466 349.021,158.857 349.231 C 159.249 349.440,160.792 349.859,162.285 350.161 C 163.778 350.463,166.170 350.982,167.600 351.315 C 172.803 352.527,177.524 353.284,183.400 353.848 C 201.472 355.582,208.134 355.751,215.312 354.657 C 217.684 354.296,220.384 353.997,221.312 353.993 C 222.240 353.989,224.260 353.711,225.800 353.374 C 227.340 353.037,229.950 352.523,231.600 352.231 C 234.864 351.654,239.161 350.620,242.000 349.727 C 242.990 349.415,244.700 348.912,245.800 348.608 C 248.455 347.875,251.393 346.899,253.600 346.016 C 254.590 345.620,256.480 344.893,257.800 344.400 C 261.385 343.060,271.210 338.403,275.000 336.246 C 278.728 334.125,279.718 333.538,282.291 331.928 C 284.671 330.437,286.068 329.501,291.397 325.826 C 300.109 319.818,313.815 306.672,321.200 297.241 C 321.750 296.538,322.479 295.657,322.820 295.282 C 323.161 294.907,323.741 294.150,324.107 293.600 C 324.474 293.050,325.602 291.430,326.613 290.000 C 328.877 286.798,332.800 280.866,332.800 280.644 C 332.800 280.555,333.550 279.248,334.466 277.741 C 336.268 274.775,341.598 264.327,341.602 263.752 C 341.604 263.558,341.897 262.860,342.253 262.200 C 343.367 260.139,346.177 252.774,347.061 249.600 C 347.398 248.390,347.839 247.200,348.040 246.955 C 348.242 246.710,348.602 245.454,348.841 244.163 C 349.079 242.872,349.507 241.363,349.790 240.808 C 350.074 240.254,350.440 238.814,350.603 237.608 C 350.767 236.403,351.150 234.709,351.455 233.844 C 351.760 232.980,352.175 230.906,352.377 229.236 C 352.579 227.566,353.013 224.940,353.341 223.400 C 354.356 218.632,354.981 205.387,354.462 199.612 C 354.215 196.856,353.925 192.170,353.818 189.200 C 353.404 177.694,349.602 159.828,345.006 147.800 C 344.418 146.260,343.675 144.280,343.355 143.400 C 342.443 140.890,335.997 127.624,334.277 124.718 C 333.795 123.903,332.692 122.013,331.828 120.518 C 328.881 115.423,323.542 108.103,317.593 101.000 C 307.080 88.448,293.548 77.041,278.600 68.131 C 277.060 67.213,274.360 65.721,272.600 64.816 C 270.840 63.911,269.130 63.002,268.800 62.796 C 267.571 62.030,261.251 59.228,257.588 57.825 C 255.505 57.027,253.350 56.181,252.800 55.944 C 252.250 55.707,250.990 55.278,250.000 54.989 C 249.010 54.701,247.300 54.173,246.200 53.817 C 240.833 52.080,237.660 51.258,232.000 50.142 C 230.350 49.816,227.830 49.294,226.400 48.981 C 219.386 47.447,195.199 46.290,189.200 47.201 M356.413 72.656 C 356.431 73.144,357.557 74.576,357.761 74.371 C 357.855 74.277,357.587 73.775,357.166 73.256 C 356.745 72.736,356.406 72.466,356.413 72.656 M41.273 76.200 C 41.022 76.750,40.883 77.200,40.963 77.200 C 41.043 77.200,41.403 76.750,41.763 76.200 C 42.124 75.650,42.263 75.200,42.073 75.200 C 41.884 75.200,41.523 75.650,41.273 76.200 M372.832 96.038 C 372.814 96.389,373.205 97.019,373.700 97.438 C 374.592 98.194,374.594 98.193,373.952 97.400 C 373.596 96.960,373.205 96.330,373.084 96.000 C 372.897 95.491,372.858 95.496,372.832 96.038 M3.701 155.400 C 3.705 156.280,3.787 156.593,3.883 156.095 C 3.979 155.598,3.975 154.878,3.875 154.495 C 3.775 154.113,3.696 154.520,3.701 155.400 M399.701 226.600 C 399.705 227.480,399.787 227.793,399.883 227.295 C 399.979 226.798,399.975 226.078,399.875 225.695 C 399.775 225.313,399.696 225.720,399.701 226.600 M399.593 231.881 C 399.487 233.025,399.547 233.815,399.726 233.635 C 399.905 233.456,399.991 232.519,399.918 231.554 L 399.785 229.800 399.593 231.881 M398.857 236.057 C 398.575 236.509,398.432 236.966,398.540 237.073 C 398.647 237.181,398.944 236.878,399.200 236.400 C 399.805 235.270,399.524 234.990,398.857 236.057 M3.701 246.200 C 3.705 247.080,3.787 247.393,3.883 246.895 C 3.979 246.398,3.975 245.678,3.875 245.295 C 3.775 244.913,3.696 245.320,3.701 246.200 M392.222 262.222 C 392.072 263.025,392.038 263.772,392.148 263.882 C 392.258 263.992,392.472 263.425,392.622 262.622 C 392.773 261.819,392.806 261.073,392.696 260.963 C 392.586 260.853,392.373 261.419,392.222 262.222 M387.900 274.432 C 387.515 274.656,387.214 275.146,387.232 275.520 C 387.257 276.074,387.306 276.089,387.496 275.600 C 387.625 275.270,388.016 274.781,388.365 274.513 C 389.137 273.920,388.861 273.872,387.900 274.432 M386.119 278.890 C 385.212 280.062,385.156 280.537,386.023 279.711 C 386.536 279.222,386.856 278.723,386.735 278.601 C 386.613 278.480,386.336 278.610,386.119 278.890 M384.844 282.044 C 384.598 282.751,384.466 283.400,384.552 283.485 C 384.638 283.571,384.909 283.062,385.156 282.356 C 385.402 281.649,385.534 281.000,385.448 280.915 C 385.362 280.829,385.091 281.338,384.844 282.044 M382.700 286.467 C 382.167 287.025,382.133 287.200,382.557 287.200 C 382.864 287.200,383.228 286.904,383.367 286.543 C 383.717 285.631,383.520 285.608,382.700 286.467 M377.866 296.071 C 377.706 296.880,377.355 297.631,377.087 297.739 C 376.719 297.889,376.725 297.945,377.110 297.968 C 377.699 298.005,378.497 296.162,378.295 295.232 C 378.220 294.884,378.027 295.262,377.866 296.071 M373.700 303.476 C 373.205 304.235,372.813 305.068,372.828 305.328 C 372.844 305.587,372.979 305.530,373.128 305.200 C 373.278 304.870,373.739 304.099,374.154 303.488 C 374.569 302.876,374.839 302.312,374.754 302.236 C 374.669 302.159,374.195 302.717,373.700 303.476 M365.256 316.655 C 364.776 317.727,364.786 317.758,365.418 317.139 C 365.789 316.776,366.020 316.260,365.931 315.994 C 365.842 315.727,365.539 316.025,365.256 316.655 M361.200 322.272 C 360.313 323.210,360.297 323.278,361.053 322.876 C 361.522 322.626,362.011 322.147,362.140 321.811 C 362.454 320.994,362.368 321.036,361.200 322.272 M353.200 331.984 C 353.200 332.196,352.795 332.747,352.300 333.209 C 351.676 333.791,351.608 333.970,352.076 333.791 C 352.880 333.484,354.198 331.600,353.609 331.600 C 353.384 331.600,353.200 331.773,353.200 331.984 M48.620 334.509 C 48.728 334.788,49.217 335.262,49.708 335.561 C 50.559 336.080,50.555 336.056,49.630 335.053 C 48.548 333.877,48.334 333.762,48.620 334.509 M334.500 350.944 C 334.005 351.189,333.600 351.533,333.600 351.709 C 333.600 352.094,335.055 351.359,335.401 350.798 C 335.537 350.579,335.592 350.422,335.524 350.449 C 335.456 350.476,334.995 350.699,334.500 350.944 M76.400 360.454 C 76.730 360.754,77.259 361.270,77.575 361.600 C 78.021 362.065,78.014 361.980,77.541 361.222 C 77.206 360.684,76.677 360.168,76.366 360.076 C 75.910 359.941,75.917 360.015,76.400 360.454 M320.689 362.405 C 320.310 362.847,320.006 363.342,320.013 363.505 C 320.021 363.667,320.342 363.423,320.727 362.962 C 321.113 362.501,321.692 362.020,322.014 361.894 C 322.514 361.697,322.510 361.659,321.989 361.632 C 321.653 361.614,321.068 361.962,320.689 362.405 M309.956 370.100 C 309.486 370.995,309.488 370.996,310.342 370.238 C 311.295 369.391,311.382 369.200,310.814 369.200 C 310.602 369.200,310.216 369.605,309.956 370.100 M290.800 381.000 C 290.522 381.335,290.479 381.600,290.702 381.600 C 290.922 381.600,291.326 381.330,291.600 381.000 C 291.878 380.665,291.921 380.400,291.698 380.400 C 291.478 380.400,291.074 380.670,290.800 381.000 M270.856 389.613 C 269.616 390.646,270.175 390.635,271.491 389.600 C 272.050 389.160,272.349 388.806,272.154 388.813 C 271.959 388.821,271.375 389.181,270.856 389.613 M137.200 392.555 C 137.200 392.640,137.730 392.787,138.379 392.882 C 139.027 392.977,139.467 392.908,139.355 392.728 C 139.157 392.407,137.200 392.250,137.200 392.555 M243.105 397.883 C 243.602 397.979,244.322 397.975,244.705 397.875 C 245.087 397.775,244.680 397.696,243.800 397.701 C 242.920 397.705,242.607 397.787,243.105 397.883 M222.600 401.200 L 219.800 401.459 222.476 401.529 C 223.948 401.568,225.264 401.420,225.400 401.200 C 225.536 400.980,225.592 400.832,225.524 400.871 C 225.456 400.909,224.140 401.058,222.600 401.200 M174.705 401.483 C 175.202 401.579,175.922 401.575,176.305 401.475 C 176.687 401.375,176.280 401.296,175.400 401.301 C 174.520 401.305,174.207 401.387,174.705 401.483 M182.905 401.487 C 183.514 401.579,184.414 401.577,184.905 401.482 C 185.397 401.387,184.900 401.311,183.800 401.314 C 182.700 401.317,182.297 401.395,182.905 401.487 M212.900 401.491 C 213.725 401.578,215.075 401.578,215.900 401.491 C 216.725 401.405,216.050 401.334,214.400 401.334 C 212.750 401.334,212.075 401.405,212.900 401.491 " stroke="none" fill="#fefefe" fill-rule="evenodd"></path><path id="path2" d="" stroke="none" fill="#808000" fill-rule="evenodd"></path><path id="path3" d="M224.100 0.276 C 224.485 0.376,225.115 0.376,225.500 0.276 C 225.885 0.175,225.570 0.093,224.800 0.093 C 224.030 0.093,223.715 0.175,224.100 0.276 " stroke="none" fill="#ff0000" fill-rule="evenodd"></path><path id="path4" d="" stroke="none" fill="#ff5500" fill-rule="evenodd"></path><path id="path5" d="M187.979 0.153 C 187.858 0.275,184.348 0.394,180.179 0.418 C 173.502 0.455,172.455 0.550,171.380 1.213 C 170.441 1.793,169.163 2.004,165.836 2.131 C 162.736 2.248,161.413 2.451,161.162 2.847 C 160.970 3.151,160.807 3.220,160.800 3.000 C 160.793 2.780,160.626 2.855,160.428 3.168 C 160.183 3.555,158.895 3.820,156.377 4.002 C 153.758 4.191,152.556 4.446,152.237 4.882 C 151.950 5.275,150.855 5.575,149.194 5.718 C 146.190 5.975,145.346 6.242,145.043 7.031 C 144.891 7.427,144.159 7.600,142.628 7.600 C 140.975 7.600,140.254 7.791,139.714 8.370 C 139.105 9.023,137.438 9.443,134.927 9.575 C 134.667 9.589,134.354 9.915,134.232 10.300 C 134.062 10.833,133.508 11.021,131.915 11.088 C 130.393 11.152,129.654 11.388,129.211 11.951 C 128.846 12.414,127.888 12.821,126.834 12.961 C 125.863 13.089,124.783 13.448,124.434 13.758 C 124.085 14.067,123.127 14.503,122.305 14.727 C 121.483 14.950,120.525 15.418,120.177 15.766 C 119.828 16.115,119.061 16.403,118.471 16.406 C 117.529 16.412,115.657 17.178,116.549 17.194 C 116.741 17.197,116.685 17.456,116.426 17.769 C 116.160 18.090,115.529 18.262,114.983 18.163 C 114.360 18.050,113.720 18.280,113.194 18.806 C 112.744 19.256,111.796 19.735,111.088 19.869 C 109.592 20.152,108.715 20.738,109.028 21.245 C 109.149 21.440,109.102 21.612,108.924 21.628 C 106.950 21.796,106.114 22.090,105.651 22.781 C 105.315 23.283,104.666 23.600,103.974 23.600 C 103.265 23.600,102.616 23.927,102.230 24.479 C 101.891 24.962,101.116 25.424,100.507 25.505 C 99.898 25.586,99.040 25.964,98.600 26.344 C 98.160 26.725,97.305 27.284,96.700 27.586 C 96.095 27.888,95.600 28.285,95.600 28.468 C 95.600 28.650,95.339 28.800,95.021 28.800 C 94.702 28.800,93.968 29.239,93.389 29.775 C 92.810 30.311,91.812 30.866,91.171 31.006 C 90.529 31.147,89.869 31.473,89.702 31.731 C 89.536 31.989,89.040 32.408,88.600 32.663 C 88.160 32.917,87.841 33.309,87.890 33.533 C 87.940 33.757,87.400 34.065,86.690 34.217 C 85.126 34.551,84.319 35.145,84.666 35.707 C 84.812 35.942,84.731 36.005,84.481 35.850 C 84.069 35.595,83.090 36.306,80.396 38.817 C 79.795 39.377,79.105 39.768,78.861 39.687 C 78.617 39.606,77.988 40.003,77.463 40.570 C 76.938 41.136,76.413 41.600,76.296 41.600 C 75.881 41.600,73.600 43.929,73.600 44.353 C 73.600 44.590,73.105 44.904,72.500 45.049 C 71.895 45.194,71.078 45.647,70.684 46.056 C 70.291 46.465,69.841 46.804,69.684 46.809 C 69.198 46.824,64.800 51.107,64.800 51.566 C 64.800 51.805,64.596 52.000,64.347 52.000 C 64.097 52.000,63.007 52.900,61.924 54.000 C 60.842 55.100,59.786 56.000,59.578 56.000 C 59.370 56.000,59.200 56.258,59.200 56.573 C 59.200 56.888,58.840 57.260,58.400 57.400 C 57.960 57.540,57.600 57.929,57.600 58.264 C 57.600 58.600,57.240 58.969,56.800 59.084 C 56.360 59.199,56.000 59.446,56.000 59.632 C 56.000 59.819,54.380 61.595,52.400 63.578 C 50.420 65.562,48.800 67.356,48.800 67.566 C 48.800 67.775,48.440 68.060,48.000 68.200 C 47.560 68.340,47.200 68.702,47.200 69.004 C 47.200 69.307,46.841 69.806,46.401 70.114 C 45.962 70.422,45.404 71.242,45.162 71.937 C 44.920 72.632,44.469 73.200,44.161 73.200 C 43.852 73.200,43.600 73.434,43.600 73.721 C 43.600 74.008,42.700 75.161,41.600 76.285 C 40.500 77.408,39.600 78.517,39.600 78.749 C 39.600 78.982,39.242 79.364,38.804 79.598 C 38.366 79.832,38.042 80.154,38.083 80.312 C 38.251 80.953,37.512 82.400,37.016 82.400 C 36.725 82.400,36.374 82.850,36.236 83.400 C 36.098 83.950,35.747 84.400,35.456 84.400 C 35.166 84.400,34.690 85.120,34.400 86.000 C 34.110 86.880,33.631 87.600,33.336 87.600 C 33.041 87.600,32.800 87.977,32.800 88.437 C 32.800 88.912,32.483 89.358,32.070 89.466 C 31.669 89.571,31.110 90.292,30.830 91.069 C 30.549 91.846,30.063 92.778,29.749 93.141 C 29.436 93.503,28.734 94.321,28.190 94.958 C 27.645 95.596,27.200 96.530,27.200 97.036 C 27.200 97.541,26.830 98.214,26.379 98.530 C 25.927 98.846,25.536 99.531,25.511 100.053 C 25.485 100.574,25.058 101.450,24.561 102.000 C 24.064 102.550,23.600 103.270,23.529 103.600 C 23.458 103.930,23.085 104.435,22.700 104.723 C 22.315 105.010,22.000 105.582,22.000 105.994 C 22.000 106.406,21.775 106.988,21.500 107.287 C 20.778 108.072,20.000 109.513,20.000 110.063 C 20.000 110.324,19.724 110.842,19.388 111.214 C 19.051 111.586,18.693 112.318,18.592 112.841 C 18.491 113.363,18.047 114.281,17.605 114.879 C 16.802 115.964,16.486 116.993,16.430 118.700 C 16.413 119.207,16.146 119.600,15.819 119.600 C 15.299 119.600,14.408 121.788,14.402 123.080 C 14.401 123.344,14.136 123.708,13.812 123.889 C 13.489 124.070,13.120 124.934,12.993 125.809 C 12.666 128.055,12.471 128.491,11.941 128.164 C 11.652 127.985,11.584 128.051,11.762 128.338 C 11.919 128.592,11.880 128.800,11.675 128.800 C 11.470 128.800,11.185 129.533,11.042 130.428 C 10.899 131.324,10.508 132.474,10.174 132.984 C 9.840 133.494,9.473 134.684,9.359 135.629 C 9.245 136.574,8.865 137.557,8.514 137.813 C 8.100 138.116,7.811 139.110,7.692 140.640 C 7.569 142.209,7.251 143.282,6.741 143.839 C 6.228 144.401,5.897 145.527,5.740 147.239 C 5.611 148.648,5.373 149.890,5.212 150.000 C 4.533 150.464,4.116 151.950,4.033 154.200 C 3.977 155.735,3.659 157.089,3.152 157.958 C 2.550 158.987,2.327 160.221,2.229 163.057 C 2.148 165.408,1.902 167.036,1.567 167.439 C 0.348 168.908,0.244 171.455,0.221 200.200 C 0.199 228.478,0.347 232.804,1.375 233.832 C 2.085 234.542,2.042 234.280,2.191 238.800 C 2.276 241.370,2.505 242.542,3.129 243.600 C 3.676 244.527,3.982 245.811,4.036 247.400 C 4.111 249.645,4.528 251.132,5.212 251.600 C 5.373 251.710,5.610 252.949,5.739 254.354 C 5.884 255.933,6.236 257.198,6.662 257.668 C 7.057 258.105,7.474 259.480,7.641 260.895 C 7.820 262.409,8.177 263.540,8.566 263.825 C 8.915 264.080,9.201 264.718,9.202 265.244 C 9.205 266.618,9.976 269.200,10.384 269.200 C 10.574 269.200,10.858 269.962,11.016 270.893 C 11.173 271.824,11.594 272.828,11.951 273.123 C 12.449 273.534,12.460 273.599,12.000 273.400 C 11.526 273.195,11.535 273.252,12.040 273.670 C 12.391 273.962,12.805 275.039,12.959 276.065 C 13.114 277.102,13.493 278.027,13.812 278.149 C 14.128 278.270,14.503 279.103,14.646 279.999 C 14.790 280.896,15.225 281.853,15.615 282.125 C 16.004 282.398,16.432 283.310,16.566 284.153 C 16.700 284.996,17.167 286.141,17.605 286.697 C 18.042 287.253,18.400 288.019,18.400 288.400 C 18.400 288.781,18.760 289.550,19.200 290.109 C 19.640 290.669,20.000 291.325,20.000 291.569 C 20.000 291.994,20.786 293.586,21.200 294.000 C 21.310 294.110,21.712 294.875,22.094 295.700 C 22.475 296.525,22.932 297.200,23.108 297.200 C 23.285 297.200,23.458 297.574,23.492 298.032 C 23.574 299.111,24.325 300.004,24.949 299.764 C 25.280 299.637,25.440 300.038,25.440 300.994 C 25.440 302.002,25.695 302.591,26.320 303.029 C 26.804 303.368,27.200 303.980,27.200 304.390 C 27.200 305.492,27.624 306.399,28.143 306.409 C 28.394 306.413,28.872 306.998,29.204 307.709 C 29.536 308.419,30.040 308.952,30.323 308.894 C 30.606 308.835,30.794 309.015,30.741 309.294 C 30.516 310.462,31.266 311.802,33.438 314.110 C 33.899 314.599,34.396 315.490,34.543 316.088 C 34.689 316.687,35.167 317.368,35.605 317.603 C 36.042 317.837,36.400 318.249,36.400 318.518 C 36.400 318.787,36.760 319.232,37.200 319.507 C 37.640 319.782,38.000 320.275,38.000 320.603 C 38.000 320.932,38.210 321.200,38.467 321.200 C 38.723 321.200,38.822 321.311,38.686 321.448 C 38.550 321.584,38.655 321.928,38.919 322.213 C 39.184 322.498,39.850 323.329,40.400 324.059 C 40.950 324.790,41.773 325.751,42.230 326.194 C 42.686 326.637,43.180 327.326,43.327 327.725 C 43.474 328.124,43.755 328.352,43.951 328.230 C 44.147 328.109,44.546 328.593,44.838 329.305 C 45.130 330.017,45.781 330.928,46.285 331.329 C 46.788 331.730,47.200 332.315,47.200 332.629 C 47.200 332.943,47.470 333.200,47.800 333.200 C 48.130 333.200,48.400 333.351,48.400 333.535 C 48.400 333.719,49.660 335.176,51.200 336.772 C 52.740 338.368,54.000 339.837,54.000 340.037 C 54.000 340.237,54.274 340.400,54.609 340.400 C 54.943 340.400,55.415 340.835,55.657 341.366 C 55.899 341.897,56.436 342.421,56.849 342.529 C 57.262 342.637,57.600 343.000,57.600 343.336 C 57.600 343.671,57.960 344.060,58.400 344.200 C 58.840 344.340,59.200 344.729,59.200 345.064 C 59.200 345.400,59.554 345.767,59.987 345.881 C 60.419 345.994,60.882 346.427,61.014 346.843 C 61.146 347.259,61.428 347.600,61.640 347.600 C 61.852 347.600,63.328 348.905,64.919 350.500 C 66.510 352.095,68.423 353.850,69.169 354.400 C 69.916 354.950,70.747 355.616,71.016 355.881 C 71.285 356.145,71.616 356.250,71.752 356.114 C 71.889 355.978,72.000 356.077,72.000 356.333 C 72.000 356.590,72.360 356.800,72.800 356.800 C 73.240 356.800,73.600 356.994,73.600 357.231 C 73.600 357.786,75.807 360.000,76.360 360.000 C 76.592 360.000,77.076 360.450,77.437 361.000 C 77.797 361.550,78.287 362.000,78.525 362.000 C 79.117 362.000,81.727 363.843,83.737 365.680 C 84.651 366.516,85.625 367.223,85.900 367.250 C 86.881 367.348,87.011 367.410,87.900 368.200 C 88.395 368.640,89.142 369.297,89.559 369.659 C 89.977 370.022,90.967 370.553,91.759 370.840 C 92.552 371.126,93.200 371.588,93.200 371.865 C 93.200 372.142,93.920 372.563,94.800 372.800 C 95.680 373.037,96.400 373.377,96.400 373.556 C 96.400 373.930,100.258 376.400,100.843 376.400 C 101.057 376.400,101.720 376.759,102.316 377.198 C 102.912 377.637,103.895 378.036,104.500 378.085 C 105.105 378.134,105.600 378.395,105.600 378.664 C 105.600 379.281,106.120 379.604,107.507 379.847 C 108.108 379.953,108.870 380.380,109.200 380.796 C 109.530 381.213,110.340 381.609,111.000 381.677 C 111.660 381.745,112.499 382.124,112.864 382.520 C 113.230 382.916,114.037 383.332,114.658 383.445 C 115.279 383.557,116.112 383.998,116.509 384.425 C 116.906 384.851,117.542 385.200,117.922 385.200 C 118.301 385.200,119.276 385.556,120.088 385.991 C 120.900 386.426,122.157 386.887,122.881 387.014 C 123.605 387.142,124.570 387.596,125.025 388.023 C 125.479 388.450,126.368 388.800,127.000 388.800 C 127.632 388.800,128.526 389.155,128.988 389.588 C 129.464 390.036,130.650 390.476,131.730 390.605 C 132.777 390.731,133.951 391.151,134.338 391.538 C 134.784 391.984,135.767 392.277,137.021 392.337 C 138.133 392.390,139.184 392.673,139.421 392.984 C 139.652 393.287,141.002 393.771,142.421 394.059 C 143.839 394.346,145.238 394.811,145.529 395.091 C 145.819 395.371,146.089 395.603,146.129 395.607 C 146.168 395.611,147.460 395.720,149.000 395.850 C 150.702 395.993,151.978 396.309,152.254 396.657 C 152.834 397.386,153.893 397.615,157.540 397.804 C 159.748 397.918,160.606 398.129,160.988 398.652 C 161.408 399.225,162.328 399.378,166.232 399.524 C 170.263 399.673,171.138 399.826,172.117 400.550 C 174.171 402.068,227.517 401.749,228.641 400.212 C 229.018 399.697,230.079 399.531,233.849 399.401 C 237.796 399.265,238.670 399.120,239.101 398.529 C 239.420 398.094,240.193 397.801,241.110 397.768 C 245.079 397.627,246.800 397.426,246.800 397.105 C 246.800 396.911,246.969 396.857,247.175 396.985 C 247.382 397.112,247.704 396.943,247.892 396.608 C 248.107 396.224,249.041 395.926,250.416 395.801 C 253.863 395.490,254.171 395.428,254.692 394.936 C 254.963 394.682,255.953 394.356,256.892 394.214 C 258.558 393.961,260.398 393.266,260.800 392.738 C 260.910 392.594,261.810 392.423,262.800 392.360 C 264.691 392.238,266.000 391.683,266.001 391.004 C 266.001 390.782,266.842 390.566,267.869 390.525 C 269.031 390.478,270.158 390.138,270.852 389.625 C 271.466 389.171,272.491 388.800,273.130 388.800 C 273.769 388.800,274.777 388.419,275.369 387.953 C 275.961 387.487,277.111 387.018,277.923 386.911 C 278.735 386.804,279.722 386.376,280.116 385.958 C 280.515 385.536,281.372 385.200,282.053 385.200 C 282.938 385.200,283.332 384.980,283.484 384.400 C 283.653 383.753,284.871 383.282,285.300 383.697 C 285.355 383.750,286.242 383.300,287.271 382.697 C 288.300 382.093,289.366 381.600,289.640 381.600 C 289.913 381.600,290.484 381.285,290.909 380.900 C 291.333 380.515,292.317 380.020,293.094 379.800 C 293.872 379.580,294.469 379.240,294.420 379.045 C 294.295 378.542,295.243 378.013,296.284 378.006 C 296.771 378.003,297.491 377.662,297.884 377.250 C 298.278 376.837,299.050 376.366,299.600 376.202 C 300.150 376.039,300.870 375.683,301.200 375.412 C 301.530 375.141,302.565 374.499,303.500 373.986 C 304.435 373.473,305.200 372.918,305.200 372.754 C 305.200 372.590,305.605 372.398,306.100 372.328 C 306.595 372.258,306.940 372.040,306.866 371.845 C 306.678 371.347,307.628 370.813,308.713 370.806 C 309.214 370.803,309.729 370.529,309.856 370.198 C 309.983 369.867,310.696 369.307,311.440 368.954 C 312.184 368.601,312.700 368.161,312.585 367.976 C 312.471 367.792,313.004 367.523,313.770 367.379 C 314.605 367.223,315.416 366.730,315.798 366.146 C 316.149 365.612,316.598 365.275,316.798 365.398 C 316.997 365.522,317.354 365.259,317.591 364.816 C 317.829 364.372,318.433 363.906,318.935 363.781 C 319.436 363.655,320.176 363.113,320.579 362.576 C 320.982 362.039,321.657 361.600,322.080 361.600 C 322.502 361.600,322.736 361.420,322.600 361.199 C 322.463 360.979,322.802 360.627,323.352 360.418 C 323.901 360.209,324.549 359.670,324.790 359.219 C 325.031 358.769,325.482 358.400,325.791 358.400 C 326.101 358.400,326.606 358.041,326.913 357.603 C 327.220 357.164,327.566 356.899,327.681 357.014 C 327.796 357.129,328.474 356.678,329.187 356.012 C 329.901 355.345,330.568 354.800,330.671 354.800 C 331.017 354.800,332.060 353.600,331.729 353.584 C 331.548 353.575,331.895 353.299,332.500 352.971 C 333.105 352.643,333.600 352.110,333.600 351.787 C 333.600 351.464,333.825 351.197,334.100 351.194 C 334.810 351.186,342.800 343.501,342.800 342.826 C 342.800 342.518,342.911 342.378,343.048 342.514 C 343.355 342.821,344.400 341.818,344.400 341.216 C 344.400 340.973,344.673 340.670,345.006 340.542 C 345.885 340.205,348.000 338.155,348.000 337.640 C 348.000 337.398,348.240 337.200,348.532 337.200 C 348.825 337.200,349.306 336.750,349.600 336.200 C 349.894 335.650,350.375 335.200,350.668 335.200 C 350.960 335.200,351.200 335.029,351.200 334.821 C 351.200 334.612,351.650 333.956,352.200 333.362 C 352.750 332.769,353.200 332.129,353.200 331.942 C 353.200 331.754,353.470 331.600,353.800 331.600 C 354.130 331.600,354.400 331.330,354.400 331.000 C 354.400 330.670,354.535 330.399,354.700 330.397 C 354.865 330.396,355.446 329.721,355.992 328.897 C 356.916 327.502,357.601 326.678,359.604 324.558 C 360.042 324.095,360.400 323.519,360.400 323.278 C 360.400 323.037,360.629 322.696,360.910 322.520 C 361.190 322.344,361.717 321.730,362.082 321.156 C 362.447 320.582,363.040 319.817,363.401 319.456 C 363.762 319.095,363.938 318.800,363.793 318.800 C 363.545 318.800,364.728 317.200,366.306 315.400 C 366.692 314.960,367.350 313.925,367.767 313.100 C 368.184 312.275,368.678 311.600,368.863 311.600 C 369.048 311.600,369.200 311.339,369.200 311.020 C 369.200 310.701,369.435 310.296,369.722 310.120 C 370.008 309.944,370.574 309.080,370.979 308.200 C 371.384 307.320,371.959 306.456,372.258 306.280 C 372.556 306.104,372.800 305.678,372.800 305.334 C 372.800 304.989,373.588 303.513,374.551 302.054 C 375.514 300.594,376.427 298.995,376.578 298.500 C 376.730 298.005,377.014 297.600,377.209 297.600 C 377.404 297.600,377.680 296.979,377.823 296.219 C 377.976 295.401,378.473 294.582,379.041 294.210 C 379.682 293.790,380.000 293.203,380.000 292.440 C 380.000 291.765,380.317 291.073,380.775 290.749 C 381.204 290.446,381.650 289.530,381.773 288.703 C 381.895 287.879,382.356 286.844,382.797 286.403 C 383.239 285.961,383.600 285.150,383.600 284.600 C 383.600 284.050,383.766 283.600,383.969 283.600 C 384.302 283.600,385.217 281.412,385.448 280.065 C 385.498 279.771,385.831 279.208,386.187 278.815 C 386.543 278.421,386.939 277.402,387.068 276.550 C 387.196 275.697,387.623 274.730,388.016 274.400 C 388.410 274.070,388.815 273.140,388.917 272.334 C 389.109 270.821,390.029 268.400,390.413 268.400 C 390.532 268.400,390.674 267.819,390.728 267.110 C 390.782 266.400,391.068 265.451,391.363 265.001 C 391.658 264.551,392.044 263.376,392.222 262.391 C 392.626 260.151,392.664 259.921,392.739 259.276 C 392.773 258.988,392.961 258.852,393.157 258.974 C 393.585 259.238,394.038 257.651,394.217 255.263 C 394.290 254.288,394.620 253.324,394.970 253.063 C 395.625 252.576,396.435 248.021,396.097 246.728 C 395.992 246.328,396.079 246.000,396.289 246.000 C 397.028 246.000,397.673 243.773,397.851 240.609 C 397.963 238.624,398.273 237.043,398.670 236.437 C 399.680 234.895,399.690 234.611,399.865 202.600 C 400.043 170.043,399.927 165.948,398.802 164.869 C 398.268 164.357,398.054 163.291,397.890 160.323 C 397.671 156.368,397.433 155.409,396.772 155.817 C 396.568 155.944,396.388 155.812,396.373 155.524 C 396.094 150.013,395.986 149.373,395.230 148.752 C 394.663 148.287,394.396 147.475,394.282 145.876 C 394.195 144.650,393.842 143.219,393.499 142.695 C 393.156 142.172,392.745 140.697,392.585 139.419 C 392.407 137.996,392.005 136.805,391.547 136.347 C 391.102 135.902,390.800 135.034,390.800 134.200 C 390.800 133.430,390.641 132.800,390.447 132.800 C 390.039 132.800,389.675 131.814,389.047 129.000 C 388.801 127.900,388.390 127.000,388.133 127.000 C 387.426 127.000,387.313 126.757,387.073 124.734 C 386.951 123.708,386.534 122.499,386.147 122.047 C 385.760 121.595,385.377 120.725,385.295 120.114 C 385.213 119.504,384.891 118.721,384.578 118.376 C 384.265 118.030,383.892 117.160,383.748 116.442 C 383.605 115.724,383.153 114.927,382.744 114.672 C 382.318 114.406,382.000 113.747,382.000 113.132 C 382.000 112.145,381.120 110.801,380.471 110.799 C 380.322 110.799,380.160 110.214,380.112 109.499 C 380.062 108.772,379.672 107.913,379.226 107.547 C 378.787 107.188,378.323 106.299,378.195 105.572 C 378.067 104.844,377.610 104.002,377.181 103.702 C 376.751 103.401,376.400 102.805,376.400 102.377 C 376.400 101.950,376.040 101.240,375.600 100.800 C 375.160 100.360,374.800 99.744,374.800 99.431 C 374.800 99.118,374.372 98.353,373.849 97.731 C 373.325 97.109,372.820 96.240,372.725 95.800 C 372.630 95.360,372.346 95.042,372.093 95.094 C 371.841 95.146,371.465 94.574,371.257 93.823 C 370.818 92.231,368.836 89.600,368.076 89.600 C 367.788 89.600,367.659 89.428,367.789 89.218 C 368.082 88.744,366.972 86.000,366.488 86.000 C 366.294 86.000,365.894 85.550,365.600 85.000 C 365.306 84.450,364.825 84.000,364.532 84.000 C 364.240 84.000,364.000 83.680,364.000 83.289 C 364.000 82.429,362.861 80.715,362.456 80.966 C 362.296 81.064,362.140 80.794,362.107 80.366 C 362.043 79.512,360.205 77.507,359.107 77.092 C 358.720 76.946,358.509 76.581,358.630 76.266 C 358.749 75.955,358.296 75.098,357.623 74.361 C 356.951 73.624,356.400 72.868,356.400 72.679 C 356.400 72.491,355.680 71.646,354.800 70.800 C 353.920 69.954,353.200 69.069,353.200 68.831 C 353.200 68.594,352.942 68.400,352.627 68.400 C 352.312 68.400,351.943 68.049,351.806 67.620 C 351.670 67.192,351.208 66.730,350.780 66.594 C 350.351 66.457,350.000 66.213,350.000 66.049 C 350.000 65.886,349.717 65.404,349.370 64.976 C 349.024 64.549,348.851 64.470,348.985 64.800 C 349.120 65.130,348.998 65.059,348.715 64.643 C 348.432 64.226,347.750 63.396,347.200 62.797 C 346.650 62.198,345.396 60.784,344.414 59.654 C 343.432 58.524,342.474 57.600,342.286 57.600 C 341.792 57.600,340.798 56.535,341.053 56.280 C 341.172 56.162,340.917 55.877,340.487 55.646 C 340.057 55.416,339.592 55.342,339.453 55.481 C 339.314 55.620,339.200 55.517,339.200 55.252 C 339.200 54.741,333.300 48.800,332.792 48.800 C 332.627 48.800,332.206 48.364,331.857 47.830 C 331.507 47.297,330.854 46.744,330.405 46.602 C 329.956 46.459,329.692 46.175,329.818 45.970 C 329.945 45.766,329.612 45.433,329.079 45.230 C 328.545 45.027,327.996 44.566,327.857 44.205 C 327.719 43.844,327.424 43.661,327.203 43.798 C 326.981 43.935,326.800 43.846,326.800 43.600 C 326.800 43.354,326.620 43.264,326.400 43.400 C 326.180 43.536,326.000 43.457,326.000 43.224 C 326.000 42.991,325.820 42.800,325.600 42.800 C 325.247 42.800,323.444 41.239,320.986 38.806 C 320.538 38.363,319.862 38.000,319.483 38.000 C 319.105 38.000,318.403 37.550,317.925 37.000 C 317.447 36.450,316.825 36.000,316.542 36.000 C 316.259 36.000,315.835 35.640,315.600 35.200 C 315.365 34.760,314.917 34.400,314.607 34.400 C 314.296 34.400,313.556 33.950,312.962 33.400 C 312.369 32.850,311.646 32.400,311.356 32.400 C 311.066 32.400,310.647 32.061,310.425 31.647 C 310.203 31.232,309.387 30.774,308.611 30.628 C 307.734 30.464,307.200 30.134,307.200 29.758 C 307.200 29.425,307.032 29.256,306.828 29.383 C 306.623 29.509,306.340 29.427,306.200 29.200 C 306.060 28.973,305.790 28.883,305.601 28.999 C 305.412 29.116,305.144 28.855,305.006 28.418 C 304.859 27.956,304.181 27.467,303.382 27.246 C 302.628 27.038,301.725 26.582,301.377 26.234 C 301.029 25.886,300.262 25.482,299.672 25.336 C 299.082 25.190,298.365 24.740,298.077 24.335 C 297.790 23.931,297.239 23.600,296.853 23.600 C 296.467 23.600,295.788 23.262,295.345 22.849 C 294.901 22.436,294.102 21.961,293.569 21.794 C 293.036 21.627,292.171 21.155,291.646 20.745 C 291.121 20.335,290.433 20.000,290.117 20.000 C 289.801 20.000,288.753 19.537,287.788 18.972 C 286.823 18.406,285.891 17.954,285.717 17.967 C 285.055 18.016,284.000 17.531,284.000 17.178 C 284.000 16.975,283.288 16.696,282.418 16.557 C 281.549 16.417,280.531 15.965,280.156 15.552 C 279.782 15.138,279.132 14.800,278.712 14.800 C 277.885 14.800,276.337 14.088,275.978 13.543 C 275.856 13.358,274.866 13.086,273.778 12.939 C 272.596 12.779,271.601 12.391,271.304 11.974 C 271.001 11.548,269.990 11.164,268.711 10.988 C 267.558 10.829,266.431 10.449,266.207 10.143 C 265.983 9.836,264.853 9.474,263.696 9.337 C 262.533 9.199,261.210 8.755,260.735 8.344 C 260.135 7.823,259.251 7.600,257.788 7.600 C 256.097 7.600,255.589 7.437,255.131 6.746 C 254.635 5.999,254.159 5.886,251.334 5.846 C 249.083 5.814,248.158 5.661,248.280 5.340 C 248.583 4.544,247.507 4.210,243.904 3.983 C 241.172 3.811,240.293 3.606,239.882 3.045 C 239.448 2.451,238.565 2.289,234.800 2.114 C 231.610 1.965,230.072 1.729,229.670 1.328 C 229.355 1.012,228.862 0.844,228.574 0.955 C 228.287 1.065,227.995 0.991,227.926 0.789 C 227.791 0.399,188.359 -0.230,187.979 0.153 M217.200 47.745 C 220.830 48.112,224.970 48.669,226.400 48.981 C 227.830 49.294,230.350 49.816,232.000 50.142 C 237.660 51.258,240.833 52.080,246.200 53.817 C 247.300 54.173,249.010 54.701,250.000 54.989 C 250.990 55.278,252.250 55.707,252.800 55.944 C 253.350 56.181,255.505 57.027,257.588 57.825 C 261.251 59.228,267.571 62.030,268.800 62.796 C 269.130 63.002,270.840 63.911,272.600 64.816 C 277.608 67.392,284.087 71.355,288.600 74.603 C 294.956 79.178,296.808 80.634,301.655 84.867 C 313.339 95.071,325.245 109.139,331.828 120.518 C 332.692 122.013,333.795 123.903,334.277 124.718 C 335.997 127.624,342.443 140.890,343.355 143.400 C 343.675 144.280,344.418 146.260,345.006 147.800 C 349.602 159.828,353.404 177.694,353.818 189.200 C 353.925 192.170,354.215 196.856,354.462 199.612 C 354.981 205.387,354.356 218.632,353.341 223.400 C 353.013 224.940,352.579 227.566,352.377 229.236 C 352.175 230.906,351.760 232.980,351.455 233.844 C 351.150 234.709,350.767 236.403,350.603 237.608 C 350.440 238.814,350.074 240.254,349.790 240.808 C 349.507 241.363,349.079 242.872,348.841 244.163 C 348.602 245.454,348.242 246.710,348.040 246.955 C 347.839 247.200,347.398 248.390,347.061 249.600 C 346.177 252.774,343.367 260.139,342.253 262.200 C 341.897 262.860,341.604 263.558,341.602 263.752 C 341.598 264.327,336.268 274.775,334.466 277.741 C 333.550 279.248,332.800 280.555,332.800 280.644 C 332.800 280.866,328.877 286.798,326.613 290.000 C 325.602 291.430,324.474 293.050,324.107 293.600 C 323.741 294.150,323.161 294.907,322.820 295.282 C 322.479 295.657,321.750 296.538,321.200 297.241 C 313.815 306.672,300.109 319.818,291.397 325.826 C 286.068 329.501,284.671 330.437,282.291 331.928 C 279.718 333.538,278.728 334.125,275.000 336.246 C 271.210 338.403,261.385 343.060,257.800 344.400 C 256.480 344.893,254.590 345.620,253.600 346.016 C 251.393 346.899,248.455 347.875,245.800 348.608 C 244.700 348.912,242.990 349.415,242.000 349.727 C 239.161 350.620,234.864 351.654,231.600 352.231 C 229.950 352.523,227.340 353.037,225.800 353.374 C 224.260 353.711,222.240 353.989,221.312 353.993 C 220.384 353.997,217.684 354.296,215.312 354.657 C 205.148 356.206,181.482 354.548,167.600 351.315 C 166.170 350.982,163.778 350.463,162.285 350.161 C 160.792 349.859,159.249 349.440,158.857 349.231 C 158.466 349.021,157.077 348.581,155.773 348.253 C 151.989 347.303,145.111 344.870,143.138 343.784 C 142.554 343.463,141.846 343.200,141.565 343.200 C 140.305 343.200,126.697 336.372,120.603 332.683 C 115.804 329.777,105.316 322.395,103.153 320.400 C 102.795 320.070,101.715 319.170,100.752 318.400 C 92.113 311.490,79.242 297.046,72.236 286.400 C 67.885 279.787,65.838 276.388,63.809 272.400 C 60.448 265.797,56.800 257.676,56.800 256.795 C 56.800 256.535,56.534 255.846,56.209 255.262 C 55.539 254.059,54.220 250.374,53.395 247.400 C 53.089 246.300,52.581 244.590,52.265 243.600 C 50.884 239.273,49.194 231.873,48.383 226.600 C 48.180 225.280,47.696 222.130,47.307 219.600 C 46.280 212.918,46.280 188.682,47.307 182.000 C 47.696 179.470,48.180 176.320,48.383 175.000 C 49.194 169.727,50.884 162.327,52.265 158.000 C 52.581 157.010,53.089 155.300,53.395 154.200 C 54.220 151.226,55.539 147.541,56.209 146.338 C 56.534 145.754,56.800 145.061,56.800 144.797 C 56.800 143.019,65.220 126.039,69.047 120.100 C 69.791 118.945,71.064 116.965,71.876 115.700 C 79.012 104.583,92.299 90.044,103.600 80.985 C 109.025 76.637,108.766 76.826,114.600 72.937 C 120.925 68.720,122.667 67.600,122.901 67.600 C 123.020 67.600,124.262 66.912,125.659 66.072 C 127.057 65.232,130.180 63.607,132.600 62.462 C 135.020 61.316,137.666 60.024,138.479 59.590 C 139.293 59.155,140.200 58.800,140.495 58.800 C 140.790 58.800,141.744 58.436,142.615 57.992 C 143.487 57.547,144.740 57.016,145.400 56.810 C 146.060 56.605,148.130 55.878,150.000 55.194 C 151.870 54.510,154.390 53.703,155.600 53.401 C 156.810 53.099,158.610 52.594,159.600 52.279 C 162.723 51.287,166.887 50.307,170.227 49.780 C 172.001 49.500,174.173 49.077,175.053 48.840 C 175.933 48.603,178.981 48.212,181.826 47.972 C 184.672 47.732,187.990 47.385,189.200 47.201 C 192.667 46.675,209.937 47.010,217.200 47.745 " stroke="none" fill="#fea000" fill-rule="evenodd"></path></g></svg>