<?xml version="1.0" encoding="UTF-8"?>
<!DOCTYPE svg PUBLIC "-//W3C//DTD SVG 1.1//EN" "http://www.w3.org/Graphics/SVG/1.1/DTD/svg11.dtd">
<!-- Creator: CorelDRAW X8 -->
<svg xmlns="http://www.w3.org/2000/svg" xml:space="preserve" width="61.1898mm" height="86.0426mm" version="1.1" style="shape-rendering:geometricPrecision; text-rendering:geometricPrecision; image-rendering:optimizeQuality; fill-rule:evenodd; clip-rule:evenodd"
viewBox="0 0 1535 2159"
 xmlns:xlink="http://www.w3.org/1999/xlink">
 <defs>
  <style type="text/css">
   <![CDATA[
    .fil0 {fill:#E6E6E6}
   ]]>
  </style>
 </defs>
 <g id="Capa_x0020_1">
  <metadata id="CorelCorpID_0Corel-Layer"/>
  <g id="_2496455121568">
   <g>
    <rect class="fil0" transform="matrix(0.125802 -0.072632 0.239719 0.415205 921.109 945.661)" width="1673" height="119" rx="51" ry="51"/>
    <rect class="fil0" transform="matrix(0.131812 -0.0761015 0.239719 0.415205 439.7 429.727)" width="1673" height="119" rx="51" ry="51"/>
    <rect class="fil0" transform="matrix(0.177193 -0.102302 0.239719 0.415205 300.041 609.593)" width="1673" height="119" rx="51" ry="51"/>
    <rect class="fil0" transform="matrix(0.147151 -0.0849575 0.239719 0.415205 315.969 699.632)" width="1673" height="119" rx="51" ry="51"/>
    <rect class="fil0" transform="matrix(0.141698 -0.0818091 0.239719 0.415205 526.562 677.281)" width="1673" height="119" rx="51" ry="51"/>
    <rect class="fil0" transform="matrix(0.125802 -0.072632 0.239719 0.415205 427.084 833.949)" width="1673" height="119" rx="51" ry="51"/>
    <rect class="fil0" transform="matrix(0.125802 -0.072632 0.239719 0.415205 493.12 895.058)" width="1673" height="119" rx="51" ry="51"/>
    <rect class="fil0" transform="matrix(0.207385 -0.119734 0.239719 0.415205 510.266 984.393)" width="1673" height="119" rx="51" ry="51"/>
    <rect class="fil0" transform="matrix(0.105448 -0.0608807 0.239719 0.415205 753.568 943.157)" width="1673" height="119" rx="51" ry="51"/>
    <rect class="fil0" transform="matrix(0.131219 -0.0757592 0.239719 0.415205 677.745 1086.17)" width="1673" height="119" rx="51" ry="51"/>
    <rect class="fil0" transform="matrix(0.116707 -0.067381 0.239719 0.415205 736.723 1151.35)" width="1673" height="119" rx="51" ry="51"/>
    <rect class="fil0" transform="matrix(0.0949711 -0.0548316 0.239719 0.415205 824.327 1200.01)" width="1673" height="119" rx="51" ry="51"/>
    <rect class="fil0" transform="matrix(0.226673 -0.130869 0.239719 0.415205 642.372 411.948)" width="1673" height="119" rx="51" ry="51"/>
    <rect class="fil0" transform="matrix(0.184379 -0.106451 0.239719 0.415205 593.852 539.196)" width="1673" height="119" rx="51" ry="51"/>
    <rect class="fil0" transform="matrix(0.183374 -0.105871 0.239719 0.415205 798.077 520.521)" width="1673" height="119" rx="51" ry="51"/>
    <rect class="fil0" transform="matrix(0.144518 -0.0834378 0.239719 0.415205 672.048 692.519)" width="1673" height="119" rx="51" ry="51"/>
    <rect class="fil0" transform="matrix(0.191985 -0.110842 0.239719 0.415205 740.354 752.317)" width="1673" height="119" rx="51" ry="51"/>
    <rect class="fil0" transform="matrix(0.154404 -0.089145 0.239719 0.415205 886.165 767.367)" width="1673" height="119" rx="51" ry="51"/>
    <rect class="fil0" transform="matrix(0.150833 -0.0870834 0.239719 0.415205 964.44 821.41)" width="1673" height="119" rx="51" ry="51"/>
    <rect class="fil0" transform="matrix(0.0629012 -0.036316 0.239719 0.415205 986.131 1007.36)" width="1673" height="119" rx="51" ry="51"/>
    <rect class="fil0" transform="matrix(0.184886 -0.106744 0.239719 0.415205 1029.1 1081.78)" width="1673" height="119" rx="51" ry="51"/>
    <rect class="fil0" transform="matrix(0.0764113 -0.0441161 0.239719 0.415205 938.415 340.262)" width="1673" height="119" rx="51" ry="51"/>
    <rect class="fil0" transform="matrix(0.134851 -0.0778564 0.239719 0.415205 962.406 524.881)" width="1673" height="119" rx="51" ry="51"/>
    <rect class="fil0" transform="matrix(0.114947 -0.0663647 0.239719 0.415205 1105.73 541.367)" width="1673" height="119" rx="51" ry="51"/>
    <rect class="fil0" transform="matrix(0.125802 -0.072632 0.239719 0.415205 1191.73 590.949)" width="1673" height="119" rx="51" ry="51"/>
    <rect class="fil0" transform="matrix(0.125802 -0.072632 0.239719 0.415205 1256.47 652.807)" width="1673" height="119" rx="51" ry="51"/>
    <rect class="fil0" transform="matrix(0.211494 -0.122106 0.239719 0.415205 1161.89 806.644)" width="1673" height="119" rx="51" ry="51"/>
    <rect class="fil0" transform="matrix(0.179439 -0.103599 0.239719 0.415205 1123.42 928.089)" width="1673" height="119" rx="51" ry="51"/>
    <rect class="fil0" transform="matrix(0.0642575 -0.0370991 0.239719 0.415205 285.337 518.848)" width="1673" height="119" rx="51" ry="51"/>
    <rect class="fil0" transform="matrix(-0.0609632 0.0351971 0.239719 0.415205 493.484 696.378)" width="1673" height="119" rx="51" ry="51"/>
    <rect class="fil0" transform="matrix(0.105448 -0.0608807 0.239719 0.415205 548.791 1059.55)" width="1673" height="119" rx="51" ry="51"/>
    <rect class="fil0" transform="matrix(0.0629012 -0.036316 0.239719 0.415205 1188.33 1089.08)" width="1673" height="119" rx="51" ry="51"/>
   </g>
   <g>
    <rect class="fil0" transform="matrix(0.125802 -0.072632 0.239719 0.415205 128.199 113.399)" width="1673" height="119" rx="51" ry="51"/>
    <rect class="fil0" transform="matrix(0.0916326 -0.0529041 0.239719 0.415205 358.786 79.5044)" width="1673" height="119" rx="51" ry="51"/>
    <rect class="fil0" transform="matrix(0.125802 -0.072632 0.239719 0.415205 214.139 262.251)" width="1673" height="119" rx="51" ry="51"/>
    <rect class="fil0" transform="matrix(0.125802 -0.072632 0.239719 0.415205 257.108 336.677)" width="1673" height="119" rx="51" ry="51"/>
    <rect class="fil0" transform="matrix(0.0894493 -0.0516436 0.239719 0.415205 360.897 375.989)" width="1673" height="119" rx="51" ry="51"/>
    <rect class="fil0" transform="matrix(0.132505 -0.076502 0.239719 0.415205 815.716 1304.21)" width="1673" height="119" rx="51" ry="51"/>
    <rect class="fil0" transform="matrix(0.100951 -0.0582838 0.239719 0.415205 470.493 114.245)" width="1673" height="119" rx="51" ry="51"/>
    <rect class="fil0" transform="matrix(0.119083 -0.0687527 0.239719 0.415205 513.463 188.671)" width="1673" height="119" rx="51" ry="51"/>
    <rect class="fil0" transform="matrix(0.127651 -0.0736995 0.239719 0.415205 556.433 263.096)" width="1673" height="119" rx="51" ry="51"/>
    <rect class="fil0" transform="matrix(0.122991 -0.0710087 0.239719 0.415205 708.461 274.558)" width="1673" height="119" rx="51" ry="51"/>
    <rect class="fil0" transform="matrix(0.0878925 -0.0507448 0.239719 0.415205 22.1793 373.079)" width="1673" height="119" rx="51" ry="51"/>
    <rect class="fil0" transform="matrix(0.132216 -0.0763352 0.239719 0.415205 -9.00488 490.318)" width="1673" height="119" rx="51" ry="51"/>
    <rect class="fil0" transform="matrix(0.179902 -0.103866 0.239719 0.415205 25.4646 569.651)" width="1673" height="119" rx="51" ry="51"/>
    <rect class="fil0" transform="matrix(0.080256 -0.0463358 0.239719 0.415205 123.001 710.888)" width="1673" height="119" rx="51" ry="51"/>
    <rect class="fil0" transform="matrix(0.0769605 -0.0444332 0.239719 0.415205 173.605 781.826)" width="1673" height="119" rx="51" ry="51"/>
    <rect class="fil0" transform="matrix(0.0657508 -0.0379612 0.239719 0.415205 239.464 843.037)" width="1673" height="119" rx="51" ry="51"/>
    <rect class="fil0" transform="matrix(0.041711 -0.0240818 0.239719 0.415205 328.745 890.725)" width="1673" height="119" rx="51" ry="51"/>
    <rect class="fil0" transform="matrix(0.0504055 -0.0291016 0.239719 0.415205 374.387 963.608)" width="1673" height="119" rx="51" ry="51"/>
    <rect class="fil0" transform="matrix(0.0806875 -0.046585 0.239719 0.415205 345.484 1079.53)" width="1673" height="119" rx="51" ry="51"/>
    <rect class="fil0" transform="matrix(0.106315 -0.0613812 0.239719 0.415205 349.982 1176.17)" width="1673" height="119" rx="51" ry="51"/>
    <rect class="fil0" transform="matrix(0.171544 -0.0990411 0.239719 0.415205 344.166 1278.76)" width="1673" height="119" rx="51" ry="51"/>
    <rect class="fil0" transform="matrix(0.139158 -0.0803429 0.239719 0.415205 474.394 1302.81)" width="1673" height="119" rx="51" ry="51"/>
    <rect class="fil0" transform="matrix(0.125802 -0.072632 0.239719 0.415205 560.333 1451.66)" width="1673" height="119" rx="51" ry="51"/>
    <rect class="fil0" transform="matrix(0.138489 -0.0799568 0.239719 0.415205 582.078 1538.34)" width="1673" height="119" rx="51" ry="51"/>
    <rect class="fil0" transform="matrix(0.125802 -0.072632 0.239719 0.415205 646.273 1600.51)" width="1673" height="119" rx="51" ry="51"/>
    <rect class="fil0" transform="matrix(0.0677292 -0.0391035 0.239719 0.415205 334.133 1383.79)" width="1673" height="119" rx="51" ry="51"/>
    <rect class="fil0" transform="matrix(0.129325 -0.0746659 0.239719 0.415205 351.884 1472.77)" width="1673" height="119" rx="51" ry="51"/>
    <rect class="fil0" transform="matrix(0.0923874 -0.0533399 0.239719 0.415205 360.854 1566.83)" width="1673" height="119" rx="51" ry="51"/>
    <rect class="fil0" transform="matrix(0.11099 -0.0640798 0.239719 0.415205 354.126 1669.95)" width="1673" height="119" rx="51" ry="51"/>
    <rect class="fil0" transform="matrix(0.144884 -0.0836488 0.239719 0.415205 358.967 1766.39)" width="1673" height="119" rx="51" ry="51"/>
    <rect class="fil0" transform="matrix(0.11672 -0.0673886 0.239719 0.415205 371.61 1858.32)" width="1673" height="119" rx="51" ry="51"/>
    <rect class="fil0" transform="matrix(0.0767818 -0.04433 0.239719 0.415205 385.616 1977.38)" width="1673" height="119" rx="51" ry="51"/>
    <rect class="fil0" transform="matrix(0.072427 -0.0418158 0.239719 0.415205 858.28 1378.87)" width="1673" height="119" rx="51" ry="51"/>
    <rect class="fil0" transform="matrix(-0.093162 0.0537871 0.239719 0.415205 230.897 550.279)" width="1673" height="119" rx="51" ry="51"/>
    <rect class="fil0" transform="matrix(0.0792752 -0.0457696 0.239719 0.415205 178.237 183.745)" width="1673" height="119" rx="51" ry="51"/>
    <rect class="fil0" transform="matrix(0.0988581 -0.0570758 0.239719 0.415205 609.592 1323.98)" width="1673" height="119" rx="51" ry="51"/>
    <rect class="fil0" transform="matrix(0.0402837 -0.0232578 0.239719 0.415205 478.7 2118.35)" width="1673" height="119" rx="51" ry="51"/>
    <rect class="fil0" transform="matrix(0.053323 -0.030786 0.239719 0.415205 54.0872 258.576)" width="1673" height="119" rx="51" ry="51"/>
    <rect class="fil0" transform="matrix(0.0591106 -0.0341275 0.239719 0.415205 427.135 2053.87)" width="1673" height="119" rx="51" ry="51"/>
   </g>
  </g>
 </g>
</svg>
